<svg xmlns="http://www.w3.org/2000/svg" viewBox="0 0 88 95"><defs><style>.cls-1,.cls-2{fill:#fff}.cls-3{fill:#2d6a00}.cls-2{font-family:Lato-Black,Lato;font-size:20px;font-weight:800}</style></defs><rect class="cls-3" x="8" y="7" width="72.18" height="80.01" rx="7" ry="7" xmlns="http://www.w3.org/2000/svg" id="Layer_4_xA0_Image" filter="drop-shadow(3px 3px 3px rgb(51,51,51,.5))"/><g id="favicon_xA0_Image"><text class="cls-2" transform="translate(13.14 78.92)" id="Ask_AI"><tspan x="0" y="0">Ask AI</tspan></text><circle class="cls-1" cx="44.09" cy="34.47" r="21.46"/><path class="cls-3" d="M51.99 35.54c0 9.68-5.44 14.48-13.52 14.48h-4.21v-3.6h3.57c6.88 0 10.32-4 10.32-12.08V17.48h3.84v18.06z"/><path class="cls-3" d="M45.1 17.48s.36 11.4-.03 15.64C44.34 41 42.78 43.24 34.9 43.24h-.64l.02-3.62h.58c5.54.16 6.19-1.43 6.48-7.45.19-3.89-.02-14.69-.02-14.69h3.78z"/></g></svg>